# xmcd
#
# Track frame offsets:
#	200
#	12075
#	27675
#	44000
#	53825
#	63962
#	80475
#	97650
#	109150
#	129275
#	142350
#	155750
#	173887
#	192650
#	208262
#	223137
#	235250
#
# Disc length: 3384 seconds
#
# Revision: 1
# Processed by: cddbd v1.5.2PL0 Copyright (c) Steve Scherf et al.
# Submitted via: EasyCDDAExtractor 16.1.0.1
#
DISCID=010d3611
DTITLE=Олег Митяев - Светлое Прошлое
DYEAR=1994
DGENRE=Chanson
TTITLE0=Фрагмент
TTITLE1=Марлевиль
TTITLE2=Француженка
TTITLE3=Я приду к тебе
TTITLE4=Что ж ты, осень?
TTITLE5=Дорога
TTITLE6=Авиатор
TTITLE7=Прохожий
TTITLE8=Светлое прошлое
TTITLE9=Праздник
TTITLE10=Почтовый чиновник
TTITLE11=Сахалин
TTITLE12=Ну, как я уеду
TTITLE13=Я сбежал
TTITLE14=Абакан
TTITLE15=Сестра милосердия
TTITLE16=Ïðîãíîç
EXTD=ID3G: 102
EXTT0=
EXTT1=
EXTT2=
EXTT3=
EXTT4=
EXTT5=
EXTT6=
EXTT7=
EXTT8=
EXTT9=
EXTT10=
EXTT11=
EXTT12=
EXTT13=
EXTT14=
EXTT15=
EXTT16=
PLAYORDER=
